<?xml version="1.0" encoding="UTF-8" standalone="no"?>
<!-- Created with Inkscape (http://www.inkscape.org/) -->

<svg
   width="47.155441"
   height="48.289505"
   viewBox="0 0 12.476544 12.776597"
   version="1.1"
   id="svg1"
   xml:space="preserve"
   inkscape:version="1.4.2 (ebf0e940d0, 2025-05-08)"
   sodipodi:docname="jip_icon.svg"
   xmlns:inkscape="http://www.inkscape.org/namespaces/inkscape"
   xmlns:sodipodi="http://sodipodi.sourceforge.net/DTD/sodipodi-0.dtd"
   xmlns="http://www.w3.org/2000/svg"
   xmlns:svg="http://www.w3.org/2000/svg"><sodipodi:namedview
     id="namedview1"
     pagecolor="#ffffff"
     bordercolor="#000000"
     borderopacity="0.25"
     inkscape:showpageshadow="2"
     inkscape:pageopacity="0.0"
     inkscape:pagecheckerboard="0"
     inkscape:deskcolor="#d1d1d1"
     inkscape:document-units="mm"
     showgrid="true"
     inkscape:zoom="16.345455"
     inkscape:cx="23.401"
     inkscape:cy="26.704671"
     inkscape:window-width="1916"
     inkscape:window-height="1150"
     inkscape:window-x="0"
     inkscape:window-y="0"
     inkscape:window-maximized="0"
     inkscape:current-layer="layer1"><inkscape:grid
       id="grid1"
       units="mm"
       originx="-58.159302"
       originy="-90.812088"
       spacingx="0.99999998"
       spacingy="1"
       empcolor="#0099e5"
       empopacity="0.30196078"
       color="#0099e5"
       opacity="0.14901961"
       empspacing="5"
       enabled="true"
       visible="true"
       dotted="true" /></sodipodi:namedview><defs
     id="defs1" /><g
     inkscape:label="Layer 1"
     inkscape:groupmode="layer"
     id="layer1"
     transform="translate(-58.159301,-90.812091)"><rect
       style="opacity:0.8;fill:#483e37;stroke:#535d6c;stroke-width:0.175249"
       id="rect1"
       width="10.850001"
       height="9.7372589"
       x="58.246925"
       y="92.242188"
       rx="1.7524875" /><path
       style="opacity:0.8;fill:#ffffff;stroke:#ffffff;stroke-width:0.227823;stroke-dasharray:none"
       d="M 58.351803,94.22068 H 68.992037"
       id="path2" /><rect
       style="opacity:0.8;fill:#483e37;stroke:#241f1c;stroke-width:0.227823;stroke-dasharray:none"
       id="rect2-8"
       width="1.1694998"
       height="2.4949329"
       x="65.61232"
       y="90.926003" /><rect
       style="opacity:0.8;fill:#483e37;stroke:#241f1c;stroke-width:0.227823;stroke-dasharray:none"
       id="rect2-8-9"
       width="1.1694998"
       height="2.4949329"
       x="60.562016"
       y="90.926003" /><ellipse
       style="opacity:0.8;fill:#ffffff;fill-opacity:1;stroke:#ffffff;stroke-width:0.237515;stroke-dasharray:none"
       id="path3"
       cx="59.304371"
       cy="95.247017"
       rx="0.37390378"
       ry="0.39016044" /><ellipse
       style="opacity:0.8;fill:#ffffff;fill-opacity:1;stroke:#ffffff;stroke-width:0.237515;stroke-dasharray:none"
       id="path3-0"
       cx="62.706173"
       cy="95.247017"
       rx="0.37390378"
       ry="0.39016044" /><ellipse
       style="opacity:0.8;fill:#ffffff;fill-opacity:1;stroke:#ffffff;stroke-width:0.237515;stroke-dasharray:none"
       id="path3-9"
       cx="64.407066"
       cy="95.247017"
       rx="0.37390378"
       ry="0.39016044" /><ellipse
       style="opacity:0.8;fill:#ffffff;fill-opacity:1;stroke:#ffffff;stroke-width:0.237515;stroke-dasharray:none"
       id="path3-03"
       cx="61.005272"
       cy="95.247017"
       rx="0.37390378"
       ry="0.39016044" /><ellipse
       style="opacity:0.8;fill:#ffffff;fill-opacity:1;stroke:#ffffff;stroke-width:0.237515;stroke-dasharray:none"
       id="path3-4"
       cx="66.107971"
       cy="95.247017"
       rx="0.37390378"
       ry="0.39016044" /><ellipse
       style="opacity:0.8;fill:#ffffff;fill-opacity:1;stroke:#ffffff;stroke-width:0.237515;stroke-dasharray:none"
       id="path3-7"
       cx="67.808868"
       cy="95.247017"
       rx="0.37390378"
       ry="0.39016044"
       inkscape:transform-center-x="2.8124069"
       inkscape:transform-center-y="-0.13006249" /><ellipse
       style="opacity:0.8;fill:#ffffff;fill-opacity:1;stroke:#ffffff;stroke-width:0.237515;stroke-dasharray:none"
       id="path3-94"
       cx="59.304371"
       cy="96.579323"
       rx="0.37390378"
       ry="0.39016044" /><ellipse
       style="opacity:0.8;fill:#ffffff;fill-opacity:1;stroke:#ffffff;stroke-width:0.237515;stroke-dasharray:none"
       id="path3-0-6"
       cx="62.706173"
       cy="96.579323"
       rx="0.37390378"
       ry="0.39016044" /><ellipse
       style="opacity:0.8;fill:#ffffff;fill-opacity:1;stroke:#ffffff;stroke-width:0.237515;stroke-dasharray:none"
       id="path3-9-9"
       cx="64.407066"
       cy="96.579323"
       rx="0.37390378"
       ry="0.39016044" /><ellipse
       style="opacity:0.8;fill:#ffffff;fill-opacity:1;stroke:#ffffff;stroke-width:0.237515;stroke-dasharray:none"
       id="path3-03-2"
       cx="61.005272"
       cy="96.579323"
       rx="0.37390378"
       ry="0.39016044" /><ellipse
       style="opacity:0.8;fill:#ffffff;fill-opacity:1;stroke:#ffffff;stroke-width:0.237515;stroke-dasharray:none"
       id="path3-4-2"
       cx="66.107971"
       cy="96.579323"
       rx="0.37390378"
       ry="0.39016044" /><ellipse
       style="opacity:0.8;fill:#ffffff;fill-opacity:1;stroke:#ffffff;stroke-width:0.237515;stroke-dasharray:none"
       id="path3-7-4"
       cx="67.808868"
       cy="96.579323"
       rx="0.37390378"
       ry="0.39016044"
       inkscape:transform-center-x="2.8124069"
       inkscape:transform-center-y="-0.13005244" /><ellipse
       style="opacity:0.8;fill:#ffffff;fill-opacity:1;stroke:#ffffff;stroke-width:0.237515;stroke-dasharray:none"
       id="path3-1"
       cx="59.304371"
       cy="97.911621"
       rx="0.37390378"
       ry="0.39016044" /><ellipse
       style="opacity:0.8;fill:#ffffff;fill-opacity:1;stroke:#ffffff;stroke-width:0.237515;stroke-dasharray:none"
       id="path3-0-2"
       cx="62.706173"
       cy="97.911621"
       rx="0.37390378"
       ry="0.39016044" /><ellipse
       style="opacity:0.8;fill:#ffffff;fill-opacity:1;stroke:#ffffff;stroke-width:0.237515;stroke-dasharray:none"
       id="path3-9-8"
       cx="64.407066"
       cy="97.911621"
       rx="0.37390378"
       ry="0.39016044" /><ellipse
       style="opacity:0.8;fill:#ffffff;fill-opacity:1;stroke:#ffffff;stroke-width:0.237515;stroke-dasharray:none"
       id="path3-03-9"
       cx="61.005272"
       cy="97.911621"
       rx="0.37390378"
       ry="0.39016044" /><ellipse
       style="opacity:0.8;fill:#ffffff;fill-opacity:1;stroke:#ffffff;stroke-width:0.237515;stroke-dasharray:none"
       id="path3-4-3"
       cx="66.107971"
       cy="97.911621"
       rx="0.37390378"
       ry="0.39016044" /><ellipse
       style="opacity:0.8;fill:#ffffff;fill-opacity:1;stroke:#ffffff;stroke-width:0.237515;stroke-dasharray:none"
       id="path3-7-6"
       cx="67.808868"
       cy="97.911621"
       rx="0.37390378"
       ry="0.39016044"
       inkscape:transform-center-x="2.8124069"
       inkscape:transform-center-y="-0.13005143" /><ellipse
       style="opacity:0.8;fill:#ffffff;fill-opacity:1;stroke:#ffffff;stroke-width:0.237515;stroke-dasharray:none"
       id="path3-5"
       cx="59.304371"
       cy="99.243912"
       rx="0.37390378"
       ry="0.39016044" /><ellipse
       style="opacity:0.8;fill:#ffffff;fill-opacity:1;stroke:#ffffff;stroke-width:0.237515;stroke-dasharray:none"
       id="path3-0-1"
       cx="62.706173"
       cy="99.243912"
       rx="0.37390378"
       ry="0.39016044" /><ellipse
       style="opacity:0.8;fill:#ffffff;fill-opacity:1;stroke:#ffffff;stroke-width:0.237515;stroke-dasharray:none"
       id="path3-9-1"
       cx="64.407066"
       cy="99.243912"
       rx="0.37390378"
       ry="0.39016044" /><ellipse
       style="opacity:0.8;fill:#ffffff;fill-opacity:1;stroke:#ffffff;stroke-width:0.237515;stroke-dasharray:none"
       id="path3-03-0"
       cx="61.005272"
       cy="99.243912"
       rx="0.37390378"
       ry="0.39016044" /><ellipse
       style="opacity:0.8;fill:#ffffff;fill-opacity:1;stroke:#ffffff;stroke-width:0.237515;stroke-dasharray:none"
       id="path3-4-8"
       cx="66.107971"
       cy="99.243912"
       rx="0.37390378"
       ry="0.39016044" /><ellipse
       style="opacity:0.8;fill:#ffffff;fill-opacity:1;stroke:#ffffff;stroke-width:0.237515;stroke-dasharray:none"
       id="path3-7-5"
       cx="67.808868"
       cy="99.243912"
       rx="0.37390378"
       ry="0.39016044"
       inkscape:transform-center-x="2.8124069"
       inkscape:transform-center-y="-0.13005664" /><ellipse
       style="opacity:0.8;fill:#ffffff;fill-opacity:1;stroke:#ffffff;stroke-width:0.237515;stroke-dasharray:none"
       id="path3-58"
       cx="59.304371"
       cy="100.5762"
       rx="0.37390378"
       ry="0.39016044" /><ellipse
       style="opacity:0.8;fill:#999999;fill-opacity:1;stroke:#999999;stroke-width:0.237515;stroke-dasharray:none"
       id="path3-0-62"
       cx="62.706173"
       cy="100.5762"
       rx="0.37390378"
       ry="0.39016044" /><ellipse
       style="opacity:0.8;fill:#ffffff;fill-opacity:1;stroke:#ffffff;stroke-width:0.237515;stroke-dasharray:none"
       id="path3-9-84"
       cx="64.407066"
       cy="100.5762"
       rx="0.37390378"
       ry="0.39016044" /><ellipse
       style="opacity:0.8;fill:#ffffff;fill-opacity:1;stroke:#ffffff;stroke-width:0.237515;stroke-dasharray:none"
       id="path3-03-7"
       cx="61.005272"
       cy="100.5762"
       rx="0.37390378"
       ry="0.39016044" /><ellipse
       style="opacity:0.8;fill:#ffffff;fill-opacity:1;stroke:#ffffff;stroke-width:0.237515;stroke-dasharray:none"
       id="path3-4-24"
       cx="66.107971"
       cy="100.5762"
       rx="0.37390378"
       ry="0.39016044" /><ellipse
       style="opacity:0.8;fill:#ffffff;fill-opacity:1;stroke:#ffffff;stroke-width:0.237515;stroke-dasharray:none"
       id="path3-7-0"
       cx="67.808868"
       cy="100.5762"
       rx="0.37390378"
       ry="0.39016044"
       inkscape:transform-center-x="2.8124069"
       inkscape:transform-center-y="-0.13005392" /><g
       id="g4"
       transform="matrix(0.01802796,0,0,0.01868252,60.222495,92.777147)"><g
         id="layer101"
         fill="#d45500"
         stroke="none"><path
           d="M 145,531 C 99,500 87,456 115,413 c 21,-32 30,-22 44,47 7,30 19,62 27,71 26,29 1,29 -41,0 z"
           id="path1" /><path
           d="m 341,534 c -23,-29 -26,-50 -11,-88 10,-28 64,-60 86,-52 12,5 12,2 0,-22 -24,-47 -51,-64 -116,-71 -51,-6 -65,-12 -85,-37 -14,-16 -24,-32 -25,-36 0,-12 -35,-9 -48,4 -7,7 -12,24 -12,38 0,41 -11,43 -47,8 -47,-46 -46,-90 5,-138 20,-19 49,-51 63,-70 l 27,-35 h 88 c 49,0 106,4 127,8 46,10 106,62 143,125 25,42 28,58 30,142 0,52 4,103 9,113 11,27 -14,75 -49,93 -41,21 -115,44 -143,44 -12,0 -31,-12 -42,-26 z m 89,-119 c 0,-3 -2,-5 -5,-5 -3,0 -5,2 -5,5 0,3 2,5 5,5 3,0 5,-2 5,-5 z"
           id="path2-6" /></g><g
         id="layer102"
         fill="#deaa87"
         stroke="none"><path
           d="m 186,549 c -33,-31 -38,-43 -56,-137 -26,-135 -26,-163 3,-190 33,-31 49,-28 85,17 28,35 36,39 87,43 46,4 61,10 90,38 18,18 39,46 46,62 10,25 9,32 -5,46 -17,16 -19,16 -29,1 -8,-14 -15,-15 -34,-6 -27,12 -40,65 -24,96 10,17 8,23 -12,36 -13,8 -44,18 -69,21 -42,6 -49,4 -82,-27 z"
           id="path3-2" /></g></g></g></svg>
